# xmcd CD database file
#
# Track frame offsets:
#	182
#	23767
#	36840
#	49370
#	60380
#	72407
#	85402
#	97885
#	109575
#	120070
#	132707
#	142260
#
# Disc length: 2036 seconds
#
# Revision: 2
# Processed by: cddbd v1.5.1PL2 Copyright (c) Steve Scherf et al.
# Submitted via: CDex 1.51
#
DISCID=a607f20c
DTITLE=Various Artist - Good Old Country Gospel
DYEAR=1994
DGENRE=Gospel
TTITLE0=The Statler Brothers - Amazing Grace
TTITLE1=Hank Williams, Sr. - Jesus Remembered Me
TTITLE2=Jerry Lee Lewis - The Old Rugged Cross
TTITLE3=George Jones - Will The Circle Be Unbroken
TTITLE4=Roy Acuff - Take My Hand, Precious Lord
TTITLE5=Hank Williams, Jr. - House of Gold
TTITLE6=Hank Williams, Sr. - I Saw The Light
TTITLE7=Roy Acuff - Where The Soul Never Dies
TTITLE8=Jerry Lee Lewis - I'll Fly Away
TTITLE9=The Statler Brothers - Sweet By and By
TTITLE10=Hank Williams, Jr. - Wait For The Light To Shine
TTITLE11=George Jones - The Good Old Bible
EXTD=YEAR: 1994
EXTT0=
EXTT1=
EXTT2=
EXTT3=
EXTT4=
EXTT5=
EXTT6=
EXTT7=
EXTT8=
EXTT9=
EXTT10=
EXTT11=
PLAYORDER=
